<mxfile host="app.diagrams.net" modified="2024-03-21T09:17:27.072Z" agent="Mozilla/5.0 (Macintosh; Intel Mac OS X 10_15_7) AppleWebKit/537.36 (KHTML, like Gecko) Chrome/122.0.0.0 Safari/537.36" version="24.0.7" etag="W2QF3BNeFeHTTspd_VWe" type="github">
  <diagram name="Page-1" id="QST7e62uYOH4bnQF5zyI">
    <mxGraphModel>
      <root>
        <mxCell id="0" />
        <mxCell id="1" parent="0" />
      </root>
    </mxGraphModel>
  </diagram>
</mxfile>
